<svg width="18" height="8" viewBox="0 0 18 8" fill="none" xmlns="http://www.w3.org/2000/svg">
<path d="M3.20117 6.168L0.988582 3.95542C0.878564 3.84916 0.731213 3.79036 0.578264 3.79169C0.425316 3.79302 0.279009 3.85437 0.170854 3.96252C0.0626997 4.07068 0.00135113 4.21698 2.20515e-05 4.36993C-0.00130703 4.52288 0.0574897 4.67023 0.163749 4.78025L2.78875 7.40525C2.89814 7.51461 3.04649 7.57604 3.20117 7.57604C3.35584 7.57604 3.50419 7.51461 3.61358 7.40525L10.0302 0.988582C10.1365 0.878564 10.1953 0.731213 10.194 0.578265C10.1926 0.425316 10.1313 0.279009 10.0231 0.170855C9.91499 0.0626998 9.76868 0.00135113 9.61573 2.20514e-05C9.46278 -0.00130703 9.31543 0.0574899 9.20541 0.163749L3.20117 6.168Z" fill="white"/>
<path d="M10.2012 6.168L7.98858 3.95542C7.87856 3.84916 7.73121 3.79036 7.57826 3.79169C7.42532 3.79302 7.27901 3.85437 7.17085 3.96252C7.0627 4.07068 7.00135 4.21698 7.00002 4.36993C6.99869 4.52288 7.05749 4.67023 7.16375 4.78025L9.78875 7.40525C9.89814 7.51461 10.0465 7.57604 10.2012 7.57604C10.3558 7.57604 10.5042 7.51461 10.6136 7.40525L17.0302 0.988582C17.1365 0.878564 17.1953 0.731213 17.194 0.578265C17.1926 0.425316 17.1313 0.279009 17.0231 0.170855C16.915 0.0626998 16.7687 0.00135113 16.6157 2.20514e-05C16.4628 -0.00130703 16.3154 0.0574899 16.2054 0.163749L10.2012 6.168Z" fill="white"/>
</svg>
